<svg xmlns="http://www.w3.org/2000/svg" xmlns:xlink="http://www.w3.org/1999/xlink" width="905" zoomAndPan="magnify" viewBox="0 0 678.75 753.749977" height="1005" preserveAspectRatio="xMidYMid meet" version="1.0"><defs><clipPath id="a7ce73d32f"><path d="M 243 232.753906 L 387 232.753906 L 387 376.753906 L 243 376.753906 Z M 243 232.753906 " clip-rule="nonzero"/></clipPath><clipPath id="6d7850c0e3"><path d="M 76 75.324219 L 603 75.324219 L 603 677 L 76 677 Z M 76 75.324219 " clip-rule="nonzero"/></clipPath><clipPath id="ffaeb1378f"><path d="M 130 133 L 550 133 L 550 392 L 130 392 Z M 130 133 " clip-rule="nonzero"/></clipPath><clipPath id="5ae88c2e8b"><path d="M 356.367188 133.757812 L 549.648438 262.722656 L 324.152344 391.683594 L 130.867188 262.722656 Z M 356.367188 133.757812 " clip-rule="nonzero"/></clipPath></defs><g clip-path="url(#a7ce73d32f)"><path fill="#727272" d="M 315 232.753906 C 275.234375 232.753906 243 264.988281 243 304.753906 C 243 344.519531 275.234375 376.753906 315 376.753906 C 354.765625 376.753906 387 344.519531 387 304.753906 C 387 264.988281 354.765625 232.753906 315 232.753906 " fill-opacity="1" fill-rule="nonzero"/></g><g clip-path="url(#6d7850c0e3)"><path fill="#d1d1d1" d="M 355.71875 74.949219 C 352.269531 75.410156 348.949219 76.585938 345.972656 78.394531 L 89.117188 225.289062 C 81.328125 229.785156 76.519531 238.09375 76.503906 247.097656 L 76.503906 504.167969 C 76.476562 512.734375 80.792969 520.730469 87.96875 525.398438 L 308.132812 672.296875 C 316.113281 677.445312 326.308594 677.664062 334.507812 672.867188 L 591.363281 525.972656 C 599.15625 521.476562 603.960938 513.164062 603.976562 504.167969 L 603.976562 247.097656 C 604.003906 238.527344 599.6875 230.535156 592.511719 225.863281 L 372.347656 78.96875 C 367.441406 75.730469 361.5625 74.308594 355.722656 74.949219 Z M 355.71875 74.949219 " fill-opacity="1" fill-rule="nonzero"/></g><path fill="#727272" d="M 130.867188 262.722656 L 324.152344 391.683594 L 324.152344 617.371094 L 130.867188 488.40625 Z M 130.867188 262.722656 " fill-opacity="1" fill-rule="nonzero"/><g clip-path="url(#ffaeb1378f)"><g clip-path="url(#5ae88c2e8b)"><path fill="#424242" d="M 130.867188 133.757812 L 130.867188 391.683594 L 549.648438 391.683594 L 549.648438 133.757812 Z M 130.867188 133.757812 " fill-opacity="1" fill-rule="nonzero"/></g></g><path fill="#a6a6a6" d="M 549.648438 262.722656 L 549.648438 488.40625 L 324.152344 617.371094 L 324.152344 391.683594 Z M 549.648438 262.722656 " fill-opacity="1" fill-rule="nonzero"/></svg>